<?xml version="1.0" encoding="UTF-8"?>
<svg version="1.1" xmlns="http://www.w3.org/2000/svg" width="32" height="32">
<path d="M0 0 C2.96367413 3.48667544 3.93705288 7.14151834 5.125 11.5 C5.455 12.49 5.785 13.48 6.125 14.5 C5.465 14.5 4.805 14.5 4.125 14.5 C4.33125 15.61375 4.5375 16.7275 4.75 17.875 C4.87375 19.07125 4.9975 20.2675 5.125 21.5 C3.125 23.5 3.125 23.5 0 23.625 C-1.423125 23.563125 -1.423125 23.563125 -2.875 23.5 C-3.535 24.82 -4.195 26.14 -4.875 27.5 C-6.83266281 27.58082094 -8.79126728 27.63910778 -10.75 27.6875 C-12.38582031 27.73970703 -12.38582031 27.73970703 -14.0546875 27.79296875 C-14.98539063 27.69628906 -15.91609375 27.59960938 -16.875 27.5 C-17.535 26.51 -18.195 25.52 -18.875 24.5 C-18.648125 23.571875 -18.42125 22.64375 -18.1875 21.6875 C-17.4881791 18.27393046 -17.4881791 18.27393046 -20.25 15.375 C-21.549375 13.951875 -21.549375 13.951875 -22.875 12.5 C-23.88212005 10.04202879 -24.05038968 8.97592722 -23.125 6.46484375 C-17.64629306 -2.42093407 -9.35196381 -4.87928547 0 0 Z " fill="#2D5888" transform="translate(23.875,2.5)"/>
<path d="M0 0 C1.16015625 0.11794922 1.16015625 0.11794922 2.34375 0.23828125 C4.5 0.6875 4.5 0.6875 7.5 2.6875 C8.08203125 4.5625 8.08203125 4.5625 8.3125 6.6875 C8.40144531 7.38875 8.49039062 8.09 8.58203125 8.8125 C8.5 10.6875 8.5 10.6875 6.5 12.6875 C3.875 12.8125 3.875 12.8125 1.5 12.6875 C-0.02448631 15.6701906 -1.43940067 18.505702 -2.5 21.6875 C-4.4375 21.375 -4.4375 21.375 -6.5 20.6875 C-6.83 19.6975 -7.16 18.7075 -7.5 17.6875 C-9.50016466 16.47867904 -9.50016466 16.47867904 -11.5 15.6875 C-11.5 15.0275 -11.5 14.3675 -11.5 13.6875 C-12.16 13.6875 -12.82 13.6875 -13.5 13.6875 C-13.85467201 10.61367594 -14.02233194 7.74762653 -13.5 4.6875 C-9.29324846 0.9481653 -5.56337007 -0.62124299 0 0 Z " fill="#1D597F" transform="translate(16.5,0.3125)"/>
<path d="M0 0 C0.625 3.375 0.625 3.375 1 7 C0.34 7.66 -0.32 8.32 -1 9 C-4.44165321 8.64700993 -6.06872538 7.95418308 -9 6 C-8.34 5.01 -7.68 4.02 -7 3 C-9.31 3.66 -11.62 4.32 -14 5 C-14.66 4.01 -15.32 3.02 -16 2 C-15.67 1.34 -15.34 0.68 -15 0 C-8.89283034 -1.90223317 -6.01861795 -2.00620598 0 0 Z " fill="#214C7C" transform="translate(24,4)"/>
<path d="M0 0 C1.765625 1.5546875 1.765625 1.5546875 3 3 C1.948125 2.814375 0.89625 2.62875 -0.1875 2.4375 C-3.67104115 2.03774938 -5.67781713 2.14815824 -9 3 C-10.0725 3.144375 -11.145 3.28875 -12.25 3.4375 C-13.1575 3.623125 -14.065 3.80875 -15 4 C-15.33 4.66 -15.66 5.32 -16 6 C-16.66 6 -17.32 6 -18 6 C-16.98601968 2.73273008 -15.93743422 1.96297127 -12.9375 0.1875 C-8.65962079 -1.45369894 -4.36540102 -1.33669256 0 0 Z " fill="#38638E" transform="translate(21,1)"/>
<path d="M0 0 C0.99 0.33 1.98 0.66 3 1 C3 1.66 3 2.32 3 3 C6.465 2.505 6.465 2.505 10 2 C10.33 2.66 10.66 3.32 11 4 C10.39351421 5.68949614 9.72159424 7.35636866 9 9 C8.67 9.99 8.34 10.98 8 12 C6.68 11.67 5.36 11.34 4 11 C4 10.34 4 9.68 4 9 C4.66 9 5.32 9 6 9 C6 7.35 6 5.7 6 4 C4.68 4 3.36 4 2 4 C1.34 2.68 0.68 1.36 0 0 Z " fill="#1E4E7A" transform="translate(6,10)"/>
<path d="M0 0 C0.99 0.33 1.98 0.66 3 1 C3.33 2.65 3.66 4.3 4 6 C2.02 6.99 2.02 6.99 0 8 C0 7.34 0 6.68 0 6 C-0.66 5.67 -1.32 5.34 -2 5 C-2 4.34 -2 3.68 -2 3 C-1.34 3 -0.68 3 0 3 C0 2.01 0 1.02 0 0 Z " fill="#19627F" transform="translate(21,5)"/>
<path d="M0 0 C0.33 0 0.66 0 1 0 C1.33 3.63 1.66 7.26 2 11 C-1.7 7.3 -1.7 7.3 -2 4 C-1.0625 1.75 -1.0625 1.75 0 0 Z " fill="#39628F" transform="translate(2,7)"/>
</svg>
